<?xml version="1.0" encoding="utf-8"?>
<!-- Generator: Adobe Illustrator 19.1.1, SVG Export Plug-In . SVG Version: 6.00 Build 0)  -->
<svg version="1.1" xmlns="http://www.w3.org/2000/svg" xmlns:xlink="http://www.w3.org/1999/xlink" x="0px" y="0px" width="37px"
	 height="37px" viewBox="0 0 37 37" style="enable-background:new 0 0 37 37;" xml:space="preserve">
<style type="text/css">
	.st0{fill:#BE2B25;}
	.st1{fill-rule:evenodd;clip-rule:evenodd;fill:#FCC200;}
	.st2{fill-rule:evenodd;clip-rule:evenodd;fill:#A7D4E9;}
	.st3{fill-rule:evenodd;clip-rule:evenodd;fill:#184E9B;}
	.st4{fill-rule:evenodd;clip-rule:evenodd;fill:#575756;}
	.st5{fill:#211F1F;}
	.st6{fill:#FFE512;}
	.st7{fill:#FF0014;}
	.st8{fill:#ED1A2E;}
	.st9{fill-rule:evenodd;clip-rule:evenodd;fill:#FFFFFF;}
	.st10{fill-rule:evenodd;clip-rule:evenodd;fill:#1D1D1B;}
	.st11{fill-rule:evenodd;clip-rule:evenodd;fill:#62B12F;}
	.st12{fill:#FF9900;}
	.st13{fill-rule:evenodd;clip-rule:evenodd;fill:#003671;}
	.st14{fill:#005098;}
	.st15{fill:#F6A500;}
	.st16{fill:#12100B;}
	.st17{fill:#B8182B;}
	.st18{fill:#AE1F31;}
	.st19{fill:#88BF52;}
	.st20{fill:#FEFEFE;}
	.st21{opacity:0.35;}
	.st22{fill:none;}
	.st23{fill:#2A408A;}
	.st24{fill:#F8AC18;}
	.st25{fill:#37A2B8;}
	.st26{fill:#EF3E36;}
	.st27{fill:#073986;}
	.st28{fill:#FF590D;}
	.st29{fill:#005DA7;}
	.st30{fill:#3D1061;}
	.st31{fill:#FFFFFF;}
	.st32{fill:#FFAA1C;}
	.st33{fill:#CEBFAA;}
	.st34{fill:#FE0000;}
	.st35{fill:#2051A8;}
	.st36{fill:#526BAA;}
	.st37{fill:#034F90;}
	.st38{fill:#144C9B;}
	.st39{fill:#F39722;}
	.st40{fill:#147D41;}
	.st41{fill-rule:evenodd;clip-rule:evenodd;fill:#F9B41D;}
	.st42{fill-rule:evenodd;clip-rule:evenodd;fill:#E30520;}
	.st43{fill:#EFA55A;}
	.st44{fill:#737373;}
	.st45{fill:#84ACDD;}
	.st46{fill:#94CE84;}
	.st47{fill:#A583B5;}
	.st48{fill:#FFDE63;}
	.st49{fill:#FF6D00;}
	.st50{fill:#0038A5;}
	.st51{fill:#222222;}
	.st52{display:none;}
</style>
<g id="Слой_1">
	<g>
		<path class="st27" d="M25.0000992,14.554739c0.2811909-0.0084934,0.5629883,0,0.8444805-0.0021238
			c-0.003336,0.1088972-0.0012131,0.2381172,0.0967636,0.3084908c0.1619797,0.1113234,0.3773479,0.09373,0.5590439,0.0464096
			c0.1950436-0.0512629,0.3427658-0.1980762,0.4640999-0.3518667c0.2790661,0.0018196,0.5584373,0.0006065,0.8378067,0.0030336
			c-0.3464069,0.6788597-1.0786533,1.160553-1.8485126,1.1465998c-0.333971,0-0.7022171-0.0934267-0.9157639-0.368247
			C24.8666325,15.111659,24.9012127,14.8031693,25.0000992,14.554739z"/>
		<path class="st27" d="M15.3465147,14.6645451c1.1614637-0.0115261,2.3235331,0.0066738,3.485301,0.0063705
			c-0.1725979,0.362483-0.3618774,0.7167768-0.5393276,1.0765305c-0.3891754,0.0051565-0.7780495-0.0003033-1.1672268,0.0009098
			c-0.8699589,1.7308197-1.7496271,3.4567871-2.6189804,5.1879101c-0.3879633,0.0212345-0.7771397,0.0081902-1.1657104,0.0081902
			c0.4604607-0.9385128,0.9436703-1.866106,1.4101973-2.8015862c0.4016132-0.799284,0.8153601-1.5925007,1.2069635-2.3966379
			c-0.3825035-0.0048532-0.765007,0.0003033-1.1475096-0.0039425
			C14.9779644,15.3776827,15.1739178,15.0267258,15.3465147,14.6645451z"/>
		<path class="st27" d="M18.9537563,16.1954689c0.48139-0.1179962,0.9973602-0.1465092,1.4787502-0.0121326
			c0.3191051,0.0897865,0.5848255,0.3266888,0.7101021,0.6336632c0.0991898-0.1889763,0.1947403-0.3794708,0.3003006-0.5651112
			c0.343071,0.001215,0.6864433-0.0009098,1.0295143,0.0036411c-0.339735,0.6873531-0.6897812,1.369854-1.0374012,2.0532627
			c-0.4155674,0.8268871-0.834774,1.6519547-1.2524643,2.4776287c-0.0300293,0.0494423-0.0436783,0.1140518-0.0906963,0.1501503
			c-0.1079865,0.0191097-0.2180958,0.0081882-0.3263855,0.010313c-0.2323532-0.0033379-0.4647083,0.0081902-0.696455-0.0091
			c0.0427704-0.0876637,0.0867538-0.175024,0.1277046-0.2635975c-0.2678432,0.173811-0.5635929,0.3051529-0.8796673,0.3591461
			c-0.5171833,0.0997982-1.0901794,0.0709801-1.543663-0.2220402c-0.3309364-0.2050533-0.5390244-0.5717831-0.591198-0.9530735
			c-0.068552-0.4816933,0.0643082-0.9649029,0.2417564-1.4089832
			C16.8686409,17.3705826,17.8159523,16.4884892,18.9537563,16.1954689z M19.2012749,17.1091099
			c-0.3673363,0.0473194-0.7082825,0.2232533-0.9852257,0.4647064c-0.4431705,0.3812904-0.7525711,0.9169769-0.8487282,1.4942207
			c-0.0406456,0.2544956-0.010313,0.5387192,0.1622849,0.7416496c0.1252766,0.158947,0.3242626,0.2372074,0.5199127,0.2632942
			c0.4686508,0.0576324,0.9494343-0.08918,1.3270836-0.3673382c0.378561-0.2684498,0.6627827-0.6588402,0.8238544-1.0923023
			c0.0870552-0.2347813,0.1556091-0.4819965,0.1501484-0.7343712c-0.0054588-0.2441826-0.1107159-0.4947357-0.3178921-0.634573
			C19.7894382,17.0833263,19.4815559,17.0809002,19.2012749,17.1091099z"/>
		<path class="st27" d="M23.3845463,16.2555294c0.3731003,0.0036392,0.7465038,0,1.1199074,0.0042458
			c-0.4801769,0.9800701-0.9873505,1.9470978-1.4696503,2.9259548c0.5623798-0.4383163,1.1041336-0.9036312,1.6583233-1.3525639
			c0.5942307-0.4877605,1.1896744-0.9740028,1.781477-1.4647961c0.0603638-0.0467148,0.1192093-0.1158733,0.2041435-0.1049538
			c0.3494396,0.0018196,0.6991825-0.0021229,1.048624,0.0039425c-0.7783546,1.5603466-1.5727844,3.1131115-2.3584175,4.6701221
			c-0.3752232,0.0154686-0.7519646,0.0154686-1.1271877-0.001215c0.4859409-0.9785519,0.9906883-1.9473991,1.4738979-2.9268627
			c-1.1830006,0.9688473-2.3644848,1.9401207-3.5456638,2.9113941c-0.0552082,0.03549-0.1270981,0.0218391-0.1889782,0.0269966
			c-0.3227463-0.0060673-0.6460991,0.0094032-0.9685421-0.0100098
			C21.8038769,19.3774357,22.5922394,17.8152695,23.3845463,16.2555294z"/>
		<path class="st27" d="M28.6340332,16.2752457c0.5463047-0.0245705,1.0935173,0.0145607,1.6404285,0.0012131
			c-0.0958538,0.7571201-0.1923141,1.5142403-0.2899876,2.2710571c-0.0370064,0.3242645-0.0894833,0.6467075-0.1152668,0.9721832
			c0.9372997-1.0847187,1.8940144-2.1527557,2.8331356-3.23596c0.5450897-0.0009098,1.0901794-0.0003033,1.6355705,0.0027294
			c-0.2311363,0.4907932-0.4898834,0.9676342-0.7301216,1.4538784c-0.5365982,1.0683403-1.0819893,2.1321297-1.6185875,3.2007732
			c-0.3752232,0.0106163-0.7513561,0.0075836-1.1265793,0.0012131c0.5402355-1.0989761,1.1092892-2.184,1.6474037-3.2838879
			c-0.3834152,0.4104099-0.7452908,0.8408413-1.1193008,1.2603512c-0.5775471,0.6555042-1.1538811,1.3122196-1.7314262,1.9674206
			c-0.0476246,0.073103-0.1419601,0.0573292-0.2162781,0.0612736c-0.2626858-0.0045509-0.5253735,0.0075836-0.7874527-0.0081902
			c0.1371059-1.1062565,0.2890759-2.2106934,0.4322491-3.3160419c-0.5748158,1.0974617-1.1171761,2.2119083-1.6825886,3.3142223
			c-0.3746185,0.0148621-0.7507515,0.0142555-1.1253681,0.0018196c0.2902908-0.5975666,0.5987797-1.1860332,0.8972607-1.7796574
			C27.6588173,18.1962566,28.1526432,17.2389355,28.6340332,16.2752457z"/>
		<g>
			<path class="st28" d="M7.980063,14.6803188c0.4789634-0.0081902,0.958837-0.0048532,1.4384074-0.0009098
				c-0.1768436,0.3582363-0.3688536,0.7082834-0.5520668,1.0631838c-0.4744139,0.003336-0.9491305,0.0063696-1.4232407,0.0006065
				c0.074317-0.1968641,0.188067-0.3752241,0.2760334-0.5657167C7.808073,15.0130758,7.8769298,14.8365355,7.980063,14.6803188z"/>
			<path class="st28" d="M7.0834098,16.4878826c0.0427699-0.0900898,0.0909996-0.1774502,0.1462064-0.2602596
				c0.4577303,0.0036392,0.9157639-0.0027313,1.3737974,0.0063686c-0.0640039,0.1804848-0.1689568,0.3421612-0.2484303,0.515667
				c-0.5575271,1.0923042-1.112627,2.1861248-1.6692438,3.2787323c-0.2211299,0.4428654-0.4571233,0.8787556-0.6667271,1.3270836
				c0.1619802,0.028513,0.3269935,0.0191097,0.4907937,0.0191097c9.6942329,0.0018196,18.1338768,0.1065044,27.8281078,0.1098423
				c-0.1155701,0.0348835,0.1186066-0.0072803,0,0c-0.8280983,0.0770454-0.761364,0.0463734-1.5912857,0.1003666
				c-1.3838062,0.0782604-2.7682209,0.1422634-4.1532402,0.1935272c-0.8799706,0.0367031-1.7596378,0.0755291-2.6399117,0.1004028
				c-0.3233528,0.0288181-0.6488285,0.010313-0.97188,0.0409508c-2.9050236,0.1073799-5.8091373,0.2396336-8.7044544,0.4983768
				c-2.3584175,0.2126369-4.7113743,0.5089931-7.0388517,0.9506474c-2.0296035,0.3812885-4.0382771,0.8754196-6.010551,1.48876
				c-0.1519701,0.0482292-0.3024235,0.1031322-0.4583368,0.1386223c0.0279067-0.08008,0.0609701-0.1583385,0.1004033-0.233263
				C4.2705989,22.0024834,5.681706,19.2476101,7.0834098,16.4878826z"/>
			<path class="st28" d="M6.9490328,20.9571972c0.8071704-1.5727844,1.6064539-3.1498146,2.4075575-4.7256317
				c0.4586401,0.0009098,0.9175835-0.004549,1.3762236,0.0036411c-0.0503531,0.1562157-0.1361971,0.297266-0.2086935,0.4434719
				c-0.1631937,0.3245678-0.332757,0.646101-0.4907932,0.9733982c0.6609631,0.0112228,1.3225336-0.0127411,1.9837999-0.0051575
				c0.2529802-0.4592457,0.4783573-0.933054,0.7189007-1.3983669c0.128006-0.016077,0.2575302-0.0181999,0.386446-0.0118294
				c0.3336668,0.0260868,0.6688509,0.0009098,1.0031242,0.0175934c-0.114357,0.2605629-0.2557106,0.5080833-0.3806839,0.7637939
				c-0.6670303,1.3040295-1.3264771,2.6120033-1.9947205,3.9154263c-0.4644032,0.0042477-0.9291096,0.0063705-1.3932104-0.0012131
				c0.2541943-0.5290127,0.5329571-1.0458927,0.7950373-1.5712662c0.0988865-0.2038403,0.2165804-0.3991871,0.2975702-0.6115208
				c-0.6633902-0.0118294-1.3255672,0.0215359-1.9889574,0.0233574c-0.3573265,0.6943302-0.7110138,1.3907833-1.0619698,2.0884495
				c-0.0269966,0.0803833-0.114357,0.0919094-0.1877642,0.0894833C7.7901764,20.9502201,7.369453,20.9620495,6.9490328,20.9571972z"
				/>
		</g>
	</g>
</g>
<g id="Слой_2" class="st52">
</g>
</svg>
