<?xml version="1.0" encoding="utf-8"?>
<!-- Generator: Adobe Illustrator 19.1.1, SVG Export Plug-In . SVG Version: 6.00 Build 0)  -->
<svg version="1.1" id="Слой_1" xmlns="http://www.w3.org/2000/svg" xmlns:xlink="http://www.w3.org/1999/xlink" x="0px" y="0px"
	 width="20px" height="20px" viewBox="0 0 20 20" style="enable-background:new 0 0 20 20;" xml:space="preserve">
<style type="text/css">
	.st0{fill:none;}
	.st1{fill:#2A408A;}
	.st2{fill:#009900;}
	.st3{fill:#CC0001;}
	.st4{fill:#88BF52;}
	.st5{fill:#FEFEFE;}
	.st6{opacity:0.35;enable-background:new    ;}
	.st7{fill:#F8AC18;}
	.st8{fill:#144C9B;}
	.st9{fill:#F39722;}
	.st10{fill:#073986;}
	.st11{fill:#FF590D;}
	.st12{fill:#EF3E36;}
	.st13{display:none;}
	.st14{fill:#3D1061;}
	.st15{fill:#FFFFFF;}
	.st16{fill:#FFAA1C;}
	.st17{fill:#005DA7;}
	.st18{fill:#37A2B8;}
	.st19{fill:#CEBFAA;}
	.st20{fill:#FE0000;}
	.st21{fill:#526BAA;}
	.st22{fill:#FFFFFF;stroke:#000000;stroke-width:0.2;stroke-miterlimit:10;}
	.st23{fill:#F26B69;stroke:#000000;stroke-width:0.2;stroke-miterlimit:10;}
	.st24{enable-background:new    ;}
	.st25{fill:#2051A8;}
	.st26{fill:#034F90;}
</style>
<g id="Слой_1_15_">
	<g>
		<path class="st26" d="M18.8379631,6.1129704c0.1002007-0.0408664,0.2002068-0.0831089,0.3009987-0.1231894
			c-1.1452484,2.578136-2.2938366,5.1548963-3.440855,7.7324433c-4.9110727,0.1222067-9.82234,0.2442179-14.7334127,0.3662271
			c0.3878402-0.2312498,0.7760735-0.4621067,1.1637175-0.6937504c0.0445995-0.0298643,0.094111-0.0504942,0.1412649-0.0750532
			c1.569437-1.0163612,3.1958513-1.9411659,4.7641091-2.9592962c0.2821374-0.1862574,0.5711508-0.3646564,0.8261747-0.5882435
			c0.2589531-0.2241783,0.5167274-0.4550352,0.726366-0.7273483C7.7562222,9.510994,6.836133,9.8119917,5.8940387,9.9436302
			c-1.0092888,0.1391039-2.0531566,0.0899849-3.0304198-0.2088528c0.8055446,0.0390987,1.6218958-0.0522614,2.3865738-0.3141613
			c0.818512-0.2764397,1.5676684-0.7412987,2.2032628-1.3238449c-1.3627458,0.6316652-2.9129281,0.8043661-4.393755,0.5966921
			C2.3694861,8.5969944,1.6906672,8.4180069,1.0438738,8.158268C1.5014623,8.2519865,1.966517,8.3162327,2.4343224,8.3156443
			c0.7760735,0.0060902,1.5521472-0.138711,2.2755656-0.4184909C5.4529538,7.610301,6.140614,7.1841478,6.7353415,6.6548467
			c1.1733451,0.957026,2.3466897,1.9142489,3.5200343,2.8712754c2.2814598-0.9043713,4.5627222-1.8095288,6.844182-2.7140965
			C17.6791573,6.5795965,18.2634716,6.3579736,18.8379631,6.1129704z M11.9132252,9.9023695
			c0.8992634,1.1279593,1.7985268,2.256115,2.6981821,3.3840742c1.2898531-2.3097525,2.5795126-4.6196995,3.8693647-6.9296489
			C16.2916565,7.5387845,14.1021461,8.7201843,11.9132252,9.9023695z M2.4857986,13.3379202
			c4.0300817,0.0062866,8.0601616,0.0104132,12.0900478,0.0170937c-0.0866451-0.0599251-0.1783991-0.1131697-0.2583637-0.1821318
			c-1.1375866-0.9151773-2.2753687-1.8303556-3.4133482-2.7449427c-0.2766361,0.1389065-0.5509138,0.2829218-0.8281393,0.4206505
			c-0.0078592-0.0066795-0.0231838-0.0198431-0.0308466-0.0265236c-0.2304649-0.2652397-0.4621077-0.5291052-0.693162-0.7937555
			C7.0632572,11.1313171,4.7743316,12.2345209,2.4857986,13.3379202z"/>
	</g>
</g>
</svg>
