<?xml version="1.0" encoding="utf-8"?>
<!-- Generator: Adobe Illustrator 19.1.1, SVG Export Plug-In . SVG Version: 6.00 Build 0)  -->
<svg version="1.1" xmlns="http://www.w3.org/2000/svg" xmlns:xlink="http://www.w3.org/1999/xlink" x="0px" y="0px" width="37px"
	 height="37px" viewBox="0 0 37 37" style="enable-background:new 0 0 37 37;" xml:space="preserve">
<style type="text/css">
	.st0{fill:#BE2B25;}
	.st1{fill-rule:evenodd;clip-rule:evenodd;fill:#FCC200;}
	.st2{fill-rule:evenodd;clip-rule:evenodd;fill:#A7D4E9;}
	.st3{fill-rule:evenodd;clip-rule:evenodd;fill:#184E9B;}
	.st4{fill-rule:evenodd;clip-rule:evenodd;fill:#575756;}
	.st5{fill:#211F1F;}
	.st6{fill:#FFE512;}
	.st7{fill:#FF0014;}
	.st8{fill:#ED1A2E;}
	.st9{fill-rule:evenodd;clip-rule:evenodd;fill:#FFFFFF;}
	.st10{fill-rule:evenodd;clip-rule:evenodd;fill:#1D1D1B;}
	.st11{fill-rule:evenodd;clip-rule:evenodd;fill:#62B12F;}
	.st12{fill:#FF9900;}
	.st13{fill-rule:evenodd;clip-rule:evenodd;fill:#003671;}
	.st14{fill:#005098;}
	.st15{fill:#F6A500;}
	.st16{fill:#12100B;}
	.st17{fill:#B8182B;}
	.st18{fill:#AE1F31;}
	.st19{fill:#88BF52;}
	.st20{fill:#FEFEFE;}
	.st21{opacity:0.35;}
	.st22{fill:none;}
	.st23{fill:#2A408A;}
	.st24{fill:#F8AC18;}
	.st25{fill:#37A2B8;}
	.st26{fill:#EF3E36;}
	.st27{fill:#073986;}
	.st28{fill:#FF590D;}
	.st29{fill:#005DA7;}
	.st30{fill:#3D1061;}
	.st31{fill:#FFFFFF;}
	.st32{fill:#FFAA1C;}
	.st33{fill:#CEBFAA;}
	.st34{fill:#FE0000;}
	.st35{fill:#2051A8;}
	.st36{fill:#526BAA;}
	.st37{fill:#034F90;}
	.st38{fill:#144C9B;}
	.st39{fill:#F39722;}
	.st40{fill:#147D41;}
	.st41{fill-rule:evenodd;clip-rule:evenodd;fill:#F9B41D;}
	.st42{fill-rule:evenodd;clip-rule:evenodd;fill:#E30520;}
	.st43{fill:#EFA55A;}
	.st44{fill:#737373;}
	.st45{fill:#84ACDD;}
	.st46{fill:#94CE84;}
	.st47{fill:#A583B5;}
	.st48{fill:#FFDE63;}
	.st49{fill:#FF6D00;}
	.st50{fill:#0038A5;}
	.st51{fill:#222222;}
	.st52{display:none;}
</style>
<g id="Слой_1">
	<g>
		<path class="st34" d="M18.2822037,2.5398011c0.2886925-0.0878277,0.6099148,0.0178907,0.8132191,0.2342069
			c1.9883175,1.9964507,3.9896488,3.9807031,5.9730873,5.9812202c0.2057438,0.1585779,0.1089725,0.5050087-0.163456,0.4928102
			c-0.8628254,0.0252094-1.7264633-0.001626-2.5884743,0.0105715c-0.4163685-0.003253-0.7953281,0.3692017-0.7741833,0.7904482
			c-0.0024395,1.4605398,0.0024395,2.9210806-0.001627,4.3816204c0.0105724,0.4196205-0.3578167,0.7969532-0.7758102,0.8010197
			c-1.4369564,0.006506-2.8747253,0.0008135-4.3116837,0.003253c-0.4131145,0.0252094-0.8302946-0.2960119-0.8465595-0.7213249
			c-0.008132-1.4890022,0.0040665-2.9788179-0.004879-4.4678211c0-0.4057951-0.3472443-0.7823153-0.7579193-0.7855682
			c-0.8709564-0.0097589-1.7411003,0.001626-2.6120567-0.003253c-0.135808-0.001627-0.284627-0.0146379-0.3822126-0.1195431
			c-0.1130381-0.2374601,0.1179161-0.4301929,0.2626696-0.5863304c1.8630829-1.8516979,3.7050219-3.7245393,5.5819302-5.5624127
			C17.8723431,2.8203614,18.0301075,2.5975397,18.2822037,2.5398011z"/>
		<path class="st34" d="M8.758606,11.9471092c0.0878277-0.0528584,0.1821604-0.0650568,0.2838125-0.0349684
			c0.145566,0.1227961,0.1333685,0.3277273,0.1398735,0.5001297c-0.003252,4.0921144,0,8.1850405-0.001626,12.2779684
			c0.003253,0.1634579-0.0341549,0.3683872-0.2114372,0.4301929c-0.1528845-0.0056934-0.2805595-0.0975857-0.3830252-0.2024918
			c-1.9509106-1.954977-3.9067006-3.9058876-5.8584242-5.8608627c-0.3139024-0.3057709-0.2886925-0.8668919,0.0357814-1.1555843
			c1.8427525-1.843565,3.6863184-3.6863174,5.5290704-5.5298834C8.4430771,12.2252302,8.5780716,12.0593338,8.758606,11.9471092z"/>
		<path class="st34" d="M28.039196,12.1105661c0.0715637-0.1089706,0.255352-0.0878277,0.3496838-0.0170774
			c0.1732159,0.1276751,0.3130894,0.2927589,0.4667873,0.4423904c1.7215843,1.7207699,3.4415398,3.4431667,5.1647491,5.1631222
			c0.1577644,0.1675243,0.3610687,0.3139038,0.430191,0.5440445c0.109787,0.304142,0.0048828,0.6546402-0.2293243,0.8709564
			c-1.9143181,1.9053707-3.8139954,3.8261909-5.7348156,5.7242432c-0.1724033,0.2244473-0.5440445,0.145565-0.5172081-0.1634579
			c-0.0089455-4.0628376,0.0008144-8.1256752-0.004879-12.1885147
			C27.9692593,12.3594112,27.9562492,12.2179117,28.039196,12.1105661z"/>
		<path class="st34" d="M16.0718765,21.7138615c0.2236366-0.0935211,0.4716663-0.0748177,0.7091274-0.0772572
			c1.3271713,0.0089455,2.6543446-0.009758,3.9815159,0.0089455c0.4366989,0,0.8010197,0.4041691,0.7790623,0.8351765
			c0.001627,1.5483665-0.0016251,3.0959206,0.001627,4.644289c-0.0073185,0.4025421,0.3618832,0.7660503,0.7644253,0.7538528
			c0.7611732,0.0040665,1.5223446-0.0024395,2.2843304,0.0008125c0.1504459,0.004879,0.3317928,0.0178909,0.4310055,0.1504459
			c0.0772552,0.1813469-0.0764427,0.3456173-0.1894798,0.4708538c-1.9126892,1.9110622-3.8237514,3.8245659-5.7372551,5.7348137
			c-0.296011,0.3155289-0.8530655,0.3529358-1.1580219,0.0317154c-1.9378986-1.9362717-3.8741722-3.8733578-5.8112574-5.8104439
			c-0.1219835-0.1203556-0.2594166-0.3252869-0.1097851-0.4797974c0.1805344-0.1236095,0.410675-0.0927086,0.6188593-0.0992126
			c0.7327099,0.0016251,1.4654188,0.003252,2.1981287,0.0008125c0.4350719,0.006506,0.7937012-0.4033566,0.7693043-0.83111
			c0.0040665-1.545927-0.0008125-3.0918541,0.001627-4.6377831C15.6034632,22.1131516,15.8010759,21.8293381,16.0718765,21.7138615z
			"/>
	</g>
</g>
<g id="Слой_2" class="st52">
</g>
</svg>
